<svg width="375" height="812" viewBox="0 0 375 812" fill="none" xmlns="http://www.w3.org/2000/svg">
<g clip-path="url(#clip0_102_232)">
<rect width="375" height="812" fill="white"/>
<rect width="424" height="866" fill="#7265E2"/>
<g opacity="0.5" filter="url(#filter0_f_102_232)">
<path d="M364.423 981.996C290.701 1004.9 252.714 966.946 204.389 1077.8C156.064 1188.65 -101.832 977.344 44.3546 981.996C190.541 986.648 275.923 958.985 204.389 886.192C132.855 813.4 438.145 959.089 364.423 981.996Z" fill="#D9D9D9"/>
</g>
<g opacity="0.5" filter="url(#filter1_f_102_232)">
<path d="M366.423 201.996C292.701 224.903 254.714 186.946 206.389 297.799C158.064 408.652 -99.8316 197.344 46.3546 201.996C192.541 206.648 277.923 178.985 206.389 106.192C134.855 33.3996 440.145 179.089 366.423 201.996Z" fill="#D9D9D9"/>
</g>
<path d="M102.663 350.091V377H96.5663L86.8432 362.862H86.6856V377H79.3802V350.091H85.5819L95.1472 364.176H95.3574V350.091H102.663ZM105.818 377V350.091H124.739V355.977H113.124V360.602H123.583V366.489H113.124V377H105.818ZM127.126 377V350.091H134.431V371.114H145.311V377H127.126ZM163.888 350.091H171.194V367.33C171.194 369.379 170.703 371.153 169.722 372.651C168.75 374.14 167.392 375.292 165.649 376.107C163.906 376.912 161.882 377.315 159.579 377.315C157.257 377.315 155.225 376.912 153.482 376.107C151.739 375.292 150.381 374.14 149.409 372.651C148.445 371.153 147.964 369.379 147.964 367.33V350.091H155.269V366.699C155.269 367.531 155.453 368.276 155.821 368.933C156.189 369.581 156.697 370.089 157.345 370.457C158.002 370.825 158.746 371.009 159.579 371.009C160.42 371.009 161.164 370.825 161.812 370.457C162.46 370.089 162.969 369.581 163.336 368.933C163.704 368.276 163.888 367.531 163.888 366.699V350.091ZM174.366 377V350.091H193.759V355.977H181.671V360.602H192.761V366.489H181.671V371.114H193.707V377H174.366ZM220.365 350.091V377H214.268L204.545 362.862H204.388V377H197.082V350.091H203.284L212.849 364.176H213.06V350.091H220.365ZM248.643 360.182H241.232C241.18 359.569 241.04 359.012 240.812 358.513C240.593 358.014 240.286 357.585 239.892 357.225C239.507 356.858 239.038 356.577 238.486 356.385C237.934 356.183 237.308 356.082 236.607 356.082C235.381 356.082 234.343 356.38 233.493 356.976C232.652 357.571 232.013 358.426 231.575 359.538C231.146 360.65 230.931 361.986 230.931 363.545C230.931 365.192 231.15 366.572 231.588 367.684C232.035 368.788 232.679 369.62 233.52 370.181C234.36 370.733 235.372 371.009 236.555 371.009C237.229 371.009 237.834 370.925 238.368 370.759C238.902 370.584 239.366 370.334 239.761 370.01C240.155 369.686 240.475 369.296 240.72 368.841C240.974 368.376 241.145 367.855 241.232 367.277L248.643 367.33C248.555 368.468 248.235 369.629 247.684 370.811C247.132 371.985 246.348 373.071 245.332 374.07C244.324 375.06 243.076 375.857 241.587 376.461C240.098 377.066 238.368 377.368 236.397 377.368C233.927 377.368 231.711 376.838 229.749 375.778C227.795 374.718 226.249 373.159 225.11 371.1C223.98 369.042 223.415 366.524 223.415 363.545C223.415 360.55 223.994 358.027 225.15 355.977C226.306 353.919 227.865 352.364 229.827 351.313C231.79 350.253 233.979 349.723 236.397 349.723C238.096 349.723 239.66 349.955 241.088 350.419C242.516 350.884 243.768 351.562 244.846 352.456C245.923 353.341 246.79 354.431 247.447 355.728C248.104 357.024 248.503 358.509 248.643 360.182ZM251.657 377V350.091H271.051V355.977H258.963V360.602H270.052V366.489H258.963V371.114H270.998V377H251.657ZM274.374 377V350.091H285.989C287.986 350.091 289.733 350.454 291.231 351.181C292.729 351.908 293.894 352.955 294.726 354.322C295.558 355.688 295.975 357.326 295.975 359.236C295.975 361.163 295.545 362.788 294.687 364.11C293.837 365.433 292.642 366.432 291.1 367.106C289.567 367.781 287.776 368.118 285.726 368.118H278.788V362.442H284.254C285.113 362.442 285.844 362.337 286.449 362.126C287.062 361.907 287.53 361.561 287.855 361.088C288.187 360.615 288.354 359.998 288.354 359.236C288.354 358.465 288.187 357.839 287.855 357.357C287.53 356.866 287.062 356.507 286.449 356.279C285.844 356.043 285.113 355.925 284.254 355.925H281.679V377H274.374ZM290.141 364.649L296.868 377H288.932L282.362 364.649H290.141Z" fill="white"/>
<path d="M115.531 398.818V409H113.89L109.092 402.065H109.008V409H107.163V398.818H108.814L113.607 405.759H113.696V398.818H115.531ZM117.54 409V398.818H124.063V400.364H119.385V403.129H123.616V404.675H119.385V409H117.54ZM125.296 400.364V398.818H133.42V400.364H130.273V409H128.443V400.364H125.296ZM138.458 409V398.818H142.356C143.092 398.818 143.703 398.934 144.191 399.166C144.681 399.395 145.047 399.708 145.289 400.106C145.535 400.504 145.657 400.954 145.657 401.458C145.657 401.872 145.578 402.227 145.419 402.522C145.259 402.814 145.046 403.051 144.777 403.233C144.509 403.415 144.209 403.546 143.877 403.626V403.725C144.239 403.745 144.585 403.856 144.916 404.058C145.251 404.257 145.525 404.539 145.737 404.903C145.949 405.268 146.055 405.709 146.055 406.226C146.055 406.753 145.927 407.227 145.672 407.648C145.417 408.065 145.032 408.395 144.519 408.637C144.005 408.879 143.359 409 142.58 409H138.458ZM140.303 407.459H142.286C142.956 407.459 143.438 407.331 143.733 407.076C144.032 406.817 144.181 406.486 144.181 406.082C144.181 405.78 144.106 405.508 143.957 405.266C143.808 405.021 143.596 404.829 143.321 404.69C143.045 404.547 142.717 404.476 142.336 404.476H140.303V407.459ZM140.303 403.148H142.127C142.446 403.148 142.732 403.09 142.987 402.974C143.243 402.855 143.443 402.688 143.589 402.472C143.738 402.254 143.813 401.995 143.813 401.697C143.813 401.302 143.674 400.978 143.395 400.722C143.12 400.467 142.711 400.339 142.167 400.339H140.303V403.148ZM149.777 409.154C149.294 409.154 148.858 409.068 148.47 408.896C148.085 408.72 147.781 408.461 147.555 408.12C147.333 407.779 147.222 407.358 147.222 406.857C147.222 406.426 147.302 406.07 147.461 405.788C147.62 405.507 147.837 405.281 148.112 405.112C148.387 404.943 148.697 404.816 149.042 404.729C149.39 404.64 149.749 404.575 150.12 404.536C150.568 404.489 150.931 404.448 151.209 404.411C151.488 404.371 151.69 404.312 151.816 404.232C151.945 404.149 152.01 404.022 152.01 403.849V403.82C152.01 403.445 151.899 403.155 151.677 402.95C151.455 402.744 151.135 402.641 150.717 402.641C150.276 402.641 149.927 402.737 149.668 402.93C149.413 403.122 149.241 403.349 149.151 403.611L147.471 403.372C147.603 402.908 147.822 402.52 148.127 402.209C148.432 401.894 148.805 401.659 149.245 401.503C149.686 401.344 150.174 401.264 150.707 401.264C151.075 401.264 151.441 401.307 151.806 401.393C152.17 401.48 152.504 401.622 152.805 401.821C153.107 402.017 153.349 402.283 153.531 402.621C153.717 402.96 153.809 403.382 153.809 403.889V409H152.079V407.951H152.02C151.91 408.163 151.756 408.362 151.557 408.548C151.362 408.73 151.115 408.877 150.816 408.99C150.522 409.099 150.175 409.154 149.777 409.154ZM150.245 407.832C150.606 407.832 150.919 407.76 151.184 407.618C151.45 407.472 151.653 407.28 151.796 407.041C151.942 406.803 152.015 406.542 152.015 406.261V405.361C151.958 405.407 151.862 405.45 151.726 405.49C151.594 405.53 151.445 405.565 151.279 405.594C151.113 405.624 150.949 405.651 150.787 405.674C150.624 405.697 150.483 405.717 150.364 405.734C150.096 405.77 149.855 405.83 149.643 405.913C149.431 405.996 149.264 406.112 149.141 406.261C149.018 406.406 148.957 406.595 148.957 406.827C148.957 407.159 149.078 407.409 149.32 407.578C149.562 407.747 149.87 407.832 150.245 407.832ZM161.655 403.382L160.014 403.561C159.968 403.395 159.886 403.24 159.77 403.094C159.658 402.948 159.505 402.83 159.313 402.741C159.121 402.651 158.885 402.607 158.607 402.607C158.232 402.607 157.918 402.688 157.662 402.85C157.41 403.013 157.286 403.223 157.29 403.482C157.286 403.704 157.367 403.884 157.533 404.023C157.702 404.163 157.981 404.277 158.368 404.366L159.671 404.645C160.393 404.801 160.93 405.048 161.282 405.386C161.636 405.724 161.815 406.166 161.819 406.713C161.815 407.194 161.674 407.618 161.396 407.986C161.121 408.35 160.738 408.635 160.248 408.841C159.757 409.046 159.194 409.149 158.557 409.149C157.623 409.149 156.87 408.954 156.3 408.562C155.73 408.168 155.39 407.62 155.281 406.917L157.036 406.748C157.116 407.093 157.285 407.353 157.543 407.528C157.802 407.704 158.138 407.792 158.552 407.792C158.98 407.792 159.323 407.704 159.581 407.528C159.843 407.353 159.974 407.136 159.974 406.877C159.974 406.658 159.89 406.478 159.721 406.335C159.555 406.193 159.296 406.083 158.945 406.007L157.642 405.734C156.91 405.581 156.368 405.324 156.017 404.963C155.665 404.598 155.491 404.138 155.495 403.581C155.491 403.11 155.619 402.703 155.878 402.358C156.139 402.01 156.502 401.741 156.966 401.553C157.434 401.36 157.972 401.264 158.582 401.264C159.477 401.264 160.181 401.455 160.695 401.836C161.212 402.217 161.532 402.732 161.655 403.382ZM166.683 409.149C165.918 409.149 165.256 408.99 164.7 408.672C164.146 408.35 163.72 407.896 163.422 407.31C163.124 406.72 162.975 406.025 162.975 405.227C162.975 404.441 163.124 403.752 163.422 403.158C163.724 402.562 164.145 402.098 164.685 401.766C165.225 401.432 165.86 401.264 166.589 401.264C167.06 401.264 167.504 401.34 167.921 401.493C168.342 401.642 168.713 401.874 169.035 402.189C169.36 402.504 169.615 402.905 169.801 403.392C169.986 403.876 170.079 404.453 170.079 405.122V405.674H163.82V404.461H168.354C168.35 404.116 168.276 403.81 168.13 403.541C167.984 403.269 167.78 403.056 167.519 402.9C167.26 402.744 166.958 402.666 166.614 402.666C166.246 402.666 165.923 402.756 165.644 402.935C165.366 403.11 165.149 403.342 164.993 403.631C164.841 403.916 164.763 404.229 164.759 404.57V405.629C164.759 406.073 164.841 406.455 165.003 406.773C165.165 407.088 165.392 407.33 165.684 407.499C165.976 407.664 166.317 407.747 166.708 407.747C166.97 407.747 167.207 407.711 167.419 407.638C167.631 407.562 167.815 407.451 167.971 407.305C168.127 407.159 168.244 406.978 168.324 406.763L170.004 406.952C169.898 407.396 169.696 407.784 169.398 408.115C169.103 408.443 168.725 408.698 168.264 408.881C167.804 409.06 167.277 409.149 166.683 409.149ZM174.435 409.134C173.835 409.134 173.298 408.98 172.824 408.672C172.351 408.364 171.976 407.916 171.701 407.33C171.426 406.743 171.288 406.03 171.288 405.192C171.288 404.343 171.427 403.627 171.706 403.044C171.988 402.457 172.367 402.015 172.844 401.717C173.322 401.415 173.854 401.264 174.44 401.264C174.888 401.264 175.256 401.34 175.544 401.493C175.832 401.642 176.061 401.823 176.23 402.035C176.399 402.244 176.53 402.441 176.623 402.626H176.697V398.818H178.502V409H176.732V407.797H176.623C176.53 407.982 176.396 408.18 176.22 408.388C176.044 408.594 175.812 408.77 175.524 408.915C175.236 409.061 174.873 409.134 174.435 409.134ZM174.937 407.658C175.319 407.658 175.643 407.555 175.912 407.349C176.18 407.141 176.384 406.851 176.523 406.479C176.663 406.108 176.732 405.676 176.732 405.182C176.732 404.688 176.663 404.259 176.523 403.894C176.387 403.53 176.185 403.246 175.917 403.044C175.652 402.842 175.325 402.741 174.937 402.741C174.536 402.741 174.202 402.845 173.933 403.054C173.665 403.263 173.463 403.551 173.327 403.919C173.191 404.287 173.123 404.708 173.123 405.182C173.123 405.659 173.191 406.085 173.327 406.46C173.466 406.831 173.67 407.124 173.938 407.339C174.21 407.552 174.543 407.658 174.937 407.658ZM190.793 402.07C190.71 401.801 190.596 401.561 190.45 401.349C190.307 401.133 190.135 400.949 189.933 400.797C189.734 400.644 189.505 400.53 189.247 400.454C188.988 400.374 188.707 400.335 188.402 400.335C187.855 400.335 187.368 400.472 186.94 400.747C186.513 401.022 186.176 401.427 185.931 401.96C185.689 402.491 185.568 403.137 185.568 403.899C185.568 404.668 185.689 405.319 185.931 405.853C186.173 406.387 186.509 406.793 186.94 407.071C187.371 407.346 187.871 407.484 188.441 407.484C188.959 407.484 189.406 407.384 189.784 407.185C190.165 406.987 190.458 406.705 190.664 406.34C190.869 405.972 190.972 405.541 190.972 405.048L191.39 405.112H188.625V403.67H192.757V404.893C192.757 405.765 192.571 406.519 192.2 407.156C191.829 407.792 191.318 408.282 190.669 408.627C190.019 408.969 189.273 409.139 188.432 409.139C187.494 409.139 186.67 408.929 185.961 408.508C185.255 408.084 184.703 407.482 184.305 406.703C183.911 405.921 183.714 404.993 183.714 403.919C183.714 403.097 183.83 402.363 184.062 401.717C184.297 401.07 184.625 400.522 185.046 400.071C185.467 399.617 185.961 399.272 186.527 399.037C187.094 398.798 187.711 398.679 188.377 398.679C188.94 398.679 189.466 398.762 189.953 398.928C190.44 399.09 190.873 399.322 191.25 399.624C191.632 399.925 191.945 400.283 192.19 400.697C192.435 401.112 192.596 401.569 192.672 402.07H190.793ZM194.939 409V401.364H196.739V409H194.939ZM195.844 400.28C195.559 400.28 195.314 400.185 195.108 399.996C194.903 399.804 194.8 399.574 194.8 399.305C194.8 399.034 194.903 398.803 195.108 398.614C195.314 398.422 195.559 398.326 195.844 398.326C196.133 398.326 196.378 398.422 196.58 398.614C196.785 398.803 196.888 399.034 196.888 399.305C196.888 399.574 196.785 399.804 196.58 399.996C196.378 400.185 196.133 400.28 195.844 400.28ZM201.911 412.023C201.264 412.023 200.709 411.935 200.245 411.759C199.781 411.587 199.408 411.355 199.127 411.063C198.845 410.772 198.649 410.448 198.54 410.094L200.161 409.701C200.234 409.85 200.34 409.998 200.479 410.143C200.618 410.293 200.805 410.415 201.041 410.511C201.279 410.611 201.579 410.661 201.941 410.661C202.451 410.661 202.874 410.536 203.208 410.288C203.543 410.042 203.71 409.638 203.71 409.075V407.628H203.621C203.528 407.813 203.392 408.004 203.213 408.2C203.038 408.395 202.804 408.559 202.512 408.692C202.224 408.824 201.861 408.891 201.424 408.891C200.837 408.891 200.305 408.753 199.828 408.478C199.354 408.2 198.976 407.785 198.694 407.235C198.416 406.682 198.277 405.989 198.277 405.157C198.277 404.318 198.416 403.611 198.694 403.034C198.976 402.454 199.355 402.015 199.833 401.717C200.31 401.415 200.842 401.264 201.429 401.264C201.876 401.264 202.244 401.34 202.532 401.493C202.824 401.642 203.056 401.823 203.228 402.035C203.401 402.244 203.532 402.441 203.621 402.626H203.72V401.364H205.495V409.124C205.495 409.777 205.34 410.317 205.028 410.745C204.716 411.173 204.291 411.492 203.75 411.705C203.21 411.917 202.597 412.023 201.911 412.023ZM201.926 407.479C202.307 407.479 202.632 407.386 202.9 407.2C203.169 407.015 203.372 406.748 203.512 406.4C203.651 406.052 203.72 405.634 203.72 405.147C203.72 404.666 203.651 404.246 203.512 403.884C203.376 403.523 203.174 403.243 202.905 403.044C202.64 402.842 202.313 402.741 201.926 402.741C201.525 402.741 201.19 402.845 200.921 403.054C200.653 403.263 200.451 403.549 200.315 403.914C200.179 404.275 200.111 404.686 200.111 405.147C200.111 405.614 200.179 406.024 200.315 406.375C200.454 406.723 200.658 406.995 200.926 407.19C201.198 407.383 201.531 407.479 201.926 407.479ZM216.425 401.617C216.379 401.183 216.183 400.845 215.839 400.603C215.497 400.361 215.053 400.24 214.506 400.24C214.122 400.24 213.792 400.298 213.517 400.414C213.242 400.53 213.031 400.687 212.886 400.886C212.74 401.085 212.665 401.312 212.662 401.567C212.662 401.78 212.71 401.964 212.806 402.119C212.905 402.275 213.04 402.408 213.209 402.517C213.378 402.623 213.565 402.713 213.771 402.786C213.976 402.858 214.183 402.92 214.392 402.969L215.347 403.208C215.731 403.298 216.101 403.419 216.455 403.571C216.813 403.723 217.133 403.916 217.415 404.148C217.7 404.38 217.925 404.66 218.091 404.988C218.257 405.316 218.339 405.701 218.339 406.141C218.339 406.738 218.187 407.263 217.882 407.717C217.577 408.168 217.136 408.521 216.56 408.776C215.986 409.028 215.292 409.154 214.476 409.154C213.684 409.154 212.997 409.031 212.413 408.786C211.833 408.541 211.379 408.183 211.051 407.712C210.726 407.242 210.551 406.668 210.524 405.992H212.339C212.365 406.347 212.475 406.642 212.667 406.877C212.859 407.112 213.109 407.288 213.418 407.404C213.729 407.52 214.077 407.578 214.462 407.578C214.863 407.578 215.214 407.518 215.516 407.399C215.82 407.277 216.059 407.107 216.231 406.892C216.404 406.673 216.492 406.418 216.495 406.126C216.492 405.861 216.414 405.643 216.261 405.47C216.109 405.295 215.895 405.149 215.62 405.033C215.348 404.913 215.03 404.807 214.665 404.714L213.507 404.416C212.668 404.201 212.006 403.874 211.518 403.437C211.034 402.996 210.793 402.411 210.793 401.682C210.793 401.082 210.955 400.557 211.28 400.106C211.608 399.655 212.054 399.305 212.617 399.057C213.181 398.805 213.819 398.679 214.531 398.679C215.254 398.679 215.887 398.805 216.43 399.057C216.977 399.305 217.406 399.652 217.718 400.096C218.03 400.537 218.19 401.044 218.2 401.617H216.425ZM223.285 409.149C222.519 409.149 221.858 408.99 221.301 408.672C220.748 408.35 220.322 407.896 220.024 407.31C219.725 406.72 219.576 406.025 219.576 405.227C219.576 404.441 219.725 403.752 220.024 403.158C220.325 402.562 220.746 402.098 221.286 401.766C221.827 401.432 222.461 401.264 223.19 401.264C223.661 401.264 224.105 401.34 224.523 401.493C224.944 401.642 225.315 401.874 225.636 402.189C225.961 402.504 226.216 402.905 226.402 403.392C226.588 403.876 226.68 404.453 226.68 405.122V405.674H220.421V404.461H224.955C224.952 404.116 224.877 403.81 224.732 403.541C224.586 403.269 224.382 403.056 224.12 402.9C223.862 402.744 223.56 402.666 223.215 402.666C222.847 402.666 222.524 402.756 222.246 402.935C221.967 403.11 221.75 403.342 221.595 403.631C221.442 403.916 221.364 404.229 221.361 404.57V405.629C221.361 406.073 221.442 406.455 221.604 406.773C221.767 407.088 221.994 407.33 222.286 407.499C222.577 407.664 222.919 407.747 223.31 407.747C223.572 407.747 223.809 407.711 224.021 407.638C224.233 407.562 224.417 407.451 224.573 407.305C224.728 407.159 224.846 406.978 224.926 406.763L226.606 406.952C226.5 407.396 226.298 407.784 225.999 408.115C225.704 408.443 225.327 408.698 224.866 408.881C224.405 409.06 223.878 409.149 223.285 409.149ZM228.203 409V401.364H229.948V402.636H230.028C230.167 402.196 230.405 401.856 230.744 401.617C231.085 401.375 231.474 401.254 231.912 401.254C232.011 401.254 232.122 401.259 232.245 401.269C232.371 401.276 232.475 401.287 232.558 401.304V402.96C232.482 402.933 232.361 402.91 232.195 402.89C232.033 402.867 231.875 402.855 231.723 402.855C231.395 402.855 231.1 402.926 230.838 403.069C230.579 403.208 230.376 403.402 230.226 403.651C230.077 403.899 230.003 404.186 230.003 404.511V409H228.203ZM240.807 401.364L238.088 409H236.099L233.38 401.364H235.299L237.054 407.036H237.133L238.893 401.364H240.807ZM242.053 409V401.364H243.852V409H242.053ZM242.957 400.28C242.672 400.28 242.427 400.185 242.222 399.996C242.016 399.804 241.913 399.574 241.913 399.305C241.913 399.034 242.016 398.803 242.222 398.614C242.427 398.422 242.672 398.326 242.957 398.326C243.246 398.326 243.491 398.422 243.693 398.614C243.899 398.803 244.002 399.034 244.002 399.305C244.002 399.574 243.899 399.804 243.693 399.996C243.491 400.185 243.246 400.28 242.957 400.28ZM249.034 409.149C248.272 409.149 247.617 408.982 247.07 408.647C246.527 408.312 246.107 407.85 245.812 407.26C245.521 406.667 245.375 405.984 245.375 405.212C245.375 404.436 245.524 403.752 245.822 403.158C246.121 402.562 246.542 402.098 247.085 401.766C247.632 401.432 248.278 401.264 249.024 401.264C249.644 401.264 250.192 401.379 250.67 401.607C251.15 401.833 251.533 402.152 251.818 402.567C252.103 402.978 252.266 403.458 252.305 404.009H250.585C250.516 403.641 250.35 403.334 250.088 403.089C249.829 402.84 249.483 402.716 249.049 402.716C248.681 402.716 248.358 402.815 248.079 403.014C247.801 403.21 247.584 403.491 247.428 403.859C247.276 404.227 247.199 404.668 247.199 405.182C247.199 405.702 247.276 406.15 247.428 406.524C247.581 406.895 247.794 407.182 248.07 407.384C248.348 407.583 248.674 407.683 249.049 407.683C249.314 407.683 249.551 407.633 249.76 407.533C249.972 407.431 250.149 407.283 250.292 407.091C250.434 406.899 250.532 406.665 250.585 406.39H252.305C252.262 406.93 252.103 407.409 251.828 407.827C251.553 408.241 251.178 408.566 250.704 408.801C250.23 409.033 249.674 409.149 249.034 409.149ZM257.164 409.149C256.398 409.149 255.737 408.99 255.18 408.672C254.627 408.35 254.201 407.896 253.902 407.31C253.604 406.72 253.455 406.025 253.455 405.227C253.455 404.441 253.604 403.752 253.902 403.158C254.204 402.562 254.625 402.098 255.165 401.766C255.705 401.432 256.34 401.264 257.069 401.264C257.54 401.264 257.984 401.34 258.402 401.493C258.823 401.642 259.194 401.874 259.515 402.189C259.84 402.504 260.095 402.905 260.281 403.392C260.467 403.876 260.559 404.453 260.559 405.122V405.674H254.3V404.461H258.834C258.831 404.116 258.756 403.81 258.611 403.541C258.465 403.269 258.261 403.056 257.999 402.9C257.741 402.744 257.439 402.666 257.094 402.666C256.726 402.666 256.403 402.756 256.125 402.935C255.846 403.11 255.629 403.342 255.473 403.631C255.321 403.916 255.243 404.229 255.24 404.57V405.629C255.24 406.073 255.321 406.455 255.483 406.773C255.646 407.088 255.873 407.33 256.165 407.499C256.456 407.664 256.798 407.747 257.189 407.747C257.45 407.747 257.687 407.711 257.9 407.638C258.112 407.562 258.296 407.451 258.451 407.305C258.607 407.159 258.725 406.978 258.804 406.763L260.485 406.952C260.379 407.396 260.177 407.784 259.878 408.115C259.583 408.443 259.205 408.698 258.745 408.881C258.284 409.06 257.757 409.149 257.164 409.149ZM268.117 403.382L266.477 403.561C266.43 403.395 266.349 403.24 266.233 403.094C266.121 402.948 265.968 402.83 265.776 402.741C265.584 402.651 265.348 402.607 265.07 402.607C264.695 402.607 264.38 402.688 264.125 402.85C263.873 403.013 263.749 403.223 263.752 403.482C263.749 403.704 263.83 403.884 263.996 404.023C264.165 404.163 264.443 404.277 264.831 404.366L266.134 404.645C266.856 404.801 267.393 405.048 267.745 405.386C268.099 405.724 268.278 406.166 268.282 406.713C268.278 407.194 268.137 407.618 267.859 407.986C267.584 408.35 267.201 408.635 266.71 408.841C266.22 409.046 265.657 409.149 265.02 409.149C264.085 409.149 263.333 408.954 262.763 408.562C262.193 408.168 261.853 407.62 261.744 406.917L263.499 406.748C263.578 407.093 263.747 407.353 264.006 407.528C264.264 407.704 264.601 407.792 265.015 407.792C265.443 407.792 265.786 407.704 266.044 407.528C266.306 407.353 266.437 407.136 266.437 406.877C266.437 406.658 266.353 406.478 266.184 406.335C266.018 406.193 265.759 406.083 265.408 406.007L264.105 405.734C263.373 405.581 262.831 405.324 262.48 404.963C262.128 404.598 261.954 404.138 261.958 403.581C261.954 403.11 262.082 402.703 262.34 402.358C262.602 402.01 262.965 401.741 263.429 401.553C263.897 401.36 264.435 401.264 265.045 401.264C265.94 401.264 266.644 401.455 267.158 401.836C267.675 402.217 267.995 402.732 268.117 403.382Z" fill="white"/>
</g>
<defs>
<filter id="filter0_f_102_232" x="-107" y="759" width="590" height="458" filterUnits="userSpaceOnUse" color-interpolation-filters="sRGB">
<feFlood flood-opacity="0" result="BackgroundImageFix"/>
<feBlend mode="normal" in="SourceGraphic" in2="BackgroundImageFix" result="shape"/>
<feGaussianBlur stdDeviation="53.5" result="effect1_foregroundBlur_102_232"/>
</filter>
<filter id="filter1_f_102_232" x="-105" y="-21" width="590" height="458" filterUnits="userSpaceOnUse" color-interpolation-filters="sRGB">
<feFlood flood-opacity="0" result="BackgroundImageFix"/>
<feBlend mode="normal" in="SourceGraphic" in2="BackgroundImageFix" result="shape"/>
<feGaussianBlur stdDeviation="53.5" result="effect1_foregroundBlur_102_232"/>
</filter>
<clipPath id="clip0_102_232">
<rect width="375" height="812" fill="white"/>
</clipPath>
</defs>
</svg>
